<svg width="128" height="128" viewBox="0 0 128 128" fill="none" xmlns="http://www.w3.org/2000/svg">
<g clip-path="url(#clip0_18_18)">
<path d="M44.9842 50.817C50.1572 50.817 54.3612 53.579 56.5162 58.375L56.6782 58.753L65.3542 55.803L65.1792 55.358C61.8242 47.166 54.0782 42.088 44.9842 42.088C38.5842 42.088 33.3842 44.135 29.0872 48.352C24.8162 52.542 22.6602 57.81 22.6602 64.007C22.6602 70.164 24.8302 75.404 29.0872 79.581C33.3842 83.798 38.5852 85.845 44.9842 85.845C54.0782 85.845 61.8112 80.753 65.1792 72.575L65.3542 72.131L56.6642 69.181L56.5162 69.571C54.5762 74.3 50.2652 77.115 44.9842 77.115C41.3872 77.115 38.3422 75.862 35.9442 73.383C33.5052 70.878 32.2792 67.712 32.2792 64.007C32.2792 60.275 33.4792 57.177 35.9442 54.549C38.3552 52.07 41.3872 50.817 44.9842 50.817Z" fill="white"/>
<path d="M82.6519 125.13L80.0659 116.602C103.4 109.516 119.081 88.378 119.081 64.007C119.081 57.284 117.882 50.71 115.511 44.485L123.837 41.319C126.6 48.568 128.011 56.2622 128 64.02C127.987 92.325 109.772 116.885 82.6519 125.13Z" fill="url(#paint0_linear_18_18)"/>
<path d="M116.67 47.894C109.543 24.641 88.3782 9.026 63.9932 9.026C60.6868 9.02652 57.3869 9.31967 54.1322 9.902L52.5552 1.132C56.33 0.453026 60.1577 0.110349 63.9932 0.108002C92.3122 0.108002 116.899 18.255 125.184 45.267L116.67 47.894Z" fill="#69D3A7"/>
<path d="M4.096 86.532C1.374 79.338 0 71.753 0 64.007C0 31 24.776 3.66399 57.634 0.429993L58.51 9.29499C30.232 12.085 8.905 35.607 8.905 64.006C8.89651 70.6276 10.0878 77.196 12.421 83.393L4.096 86.532Z" fill="url(#paint1_linear_18_18)"/>
<path d="M64.3301 42.896L81.7901 85.63L69.0721 116.48L77.9771 118.259L108.937 42.895H99.3171L86.9641 74.205L74.5151 42.895L64.3301 42.896Z" fill="white"/>
<path d="M70.6749 112.601L68.8028 117.141C68.3718 118.179 67.3878 118.893 66.2828 118.933C65.5158 118.96 64.7608 118.987 63.9798 118.987C39.5278 118.987 17.7558 102.618 11.0338 79.177L2.46484 81.628C10.2788 108.856 35.5668 127.878 63.9658 127.892H63.9798C64.8688 127.892 65.7579 127.879 66.6469 127.838C71.2139 127.65 75.2968 124.78 77.0468 120.536L79.5808 114.38L70.6749 112.601Z" fill="url(#paint2_linear_18_18)"/>
</g>
<defs>
<linearGradient id="paint0_linear_18_18" x1="132.9" y1="64.4103" x2="75.7621" y2="101.405" gradientUnits="userSpaceOnUse">
<stop offset="0.081" stop-color="#69D3A7"/>
<stop offset="1" stop-color="#69D3A7" stop-opacity="0"/>
</linearGradient>
<linearGradient id="paint1_linear_18_18" x1="42.6903" y1="0.915983" x2="6.79442" y2="77.0472" gradientUnits="userSpaceOnUse">
<stop stop-color="#69D3A7"/>
<stop offset="0.823" stop-color="#2AB586"/>
<stop offset="1" stop-color="#1CAE7F"/>
</linearGradient>
<linearGradient id="paint2_linear_18_18" x1="-0.091008" y1="93.2601" x2="94.0333" y2="122.8" gradientUnits="userSpaceOnUse">
<stop offset="0.077" stop-color="#1CAE7F"/>
<stop offset="0.164" stop-color="#1CA379"/>
<stop offset="0.316" stop-color="#1C8568"/>
<stop offset="0.516" stop-color="#1B554D"/>
<stop offset="0.719" stop-color="#1B1E2E"/>
</linearGradient>
<clipPath id="clip0_18_18">
<rect width="128" height="128" fill="white"/>
</clipPath>
</defs>
</svg>
